<?xml version="1.0" encoding="UTF-8"?>
<svg version="1.1" xmlns="http://www.w3.org/2000/svg" width="251" height="176">
<path d="M0 0 C82.83 0 165.66 0 251 0 C251 58.08 251 116.16 251 176 C168.17 176 85.34 176 0 176 C0 117.92 0 59.84 0 0 Z " fill="#F6F6F6" transform="translate(0,0)"/>
<path d="M0 0 C0.99 0 1.98 0 3 0 C3.3403125 1.3303125 3.3403125 1.3303125 3.6875 2.6875 C4.79715153 6.12791082 4.79715153 6.12791082 7.5 8.5 C10 11 10 11 10.8125 13.75 C12.34940388 17.95626326 14.87063001 20.42823304 17.890625 23.6796875 C26 32.6 26 32.6 26 35 C27.093125 35.2475 28.18625 35.495 29.3125 35.75 C33.05866178 37.01988535 34.18954349 37.59208186 36 41 C36 41.66 36 42.32 36 43 C41.28 43 46.56 43 52 43 C52 51 52 51 50.72265625 53.2421875 C50.17480469 53.78101563 49.62695312 54.31984375 49.0625 54.875 C45.97413317 58.01447456 45.05767592 59.13486118 44.75 63.75 C44.82530039 69.68797389 47.49592653 73.32790204 51 78 C38.79 78 26.58 78 14 78 C14 77.34 14 76.68 14 76 C14.66 76 15.32 76 16 76 C18.80110678 70.5845269 19.63901482 66.05999056 19 60 C17.63002843 57.12853006 17.63002843 57.12853006 16 55 C16 54.34 16 53.68 16 53 C15.34 53 14.68 53 14 53 C11.5705484 49.3558226 11.83820425 47.28758728 12 43 C14.64 43 17.28 43 20 43 C19.88693303 41.04105639 19.88693303 41.04105639 19 39 C18.24589844 38.73574219 17.49179688 38.47148438 16.71484375 38.19921875 C13.23172727 36.66063348 11.93969682 34.77564113 9.75 31.6875 C9.06421875 30.74261719 8.3784375 29.79773438 7.671875 28.82421875 C6.03806043 26.06429368 5.52940684 24.11354121 5 21 C3.03490091 18.2299003 3.03490091 18.2299003 1 16 C0.0925 16.474375 -0.815 16.94875 -1.75 17.4375 C-4.30848407 18.66754042 -6.29379974 19.36855327 -9 20 C-14.33592535 22.32798471 -18.56614311 26.30631695 -23 30 C-23.99 30.804375 -24.98 31.60875 -26 32.4375 C-28.78243306 36.00249236 -29.3562451 39.58979853 -30 44 C-28.35 44 -26.7 44 -25 44 C-25.5640854 47.94859783 -26.7431706 50.70879046 -29 54 C-29.33 54 -29.66 54 -30 54 C-29.67 51.03 -29.34 48.06 -29 45 C-31.31 45 -33.62 45 -36 45 C-36 47.31 -36 49.62 -36 52 C-34.35 52.33 -32.7 52.66 -31 53 C-31.33 54.65 -31.66 56.3 -32 58 C-31.34 58 -30.68 58 -30 58 C-29.67 57.01 -29.34 56.02 -29 55 C-28.34 55.33 -27.68 55.66 -27 56 C-26.62098681 63.88908938 -26.6382421 69.24274117 -32.125 75.375 C-36.13721377 77.642773 -39.49575901 77.92039644 -44 77 C-47.0625 75 -47.0625 75 -49 72 C-49.75627859 66.13884096 -48.84169462 62.27743287 -46 57 C-43.270059 53.65362071 -42.32213421 53.08053355 -38 52 C-38 49.03 -38 46.06 -38 43 C-36.35 43 -34.7 43 -33 43 C-32.9727585 41.58344207 -32.95349533 40.16672955 -32.9375 38.75 C-32.92589844 37.96109375 -32.91429688 37.1721875 -32.90234375 36.359375 C-32.99643951 34.08602141 -33.41648066 32.18870232 -34 30 C-32.989375 29.25234375 -31.97875 28.5046875 -30.9375 27.734375 C-29.62449853 26.74024531 -28.31202568 25.74541716 -27 24.75 C-26.33226563 24.25886719 -25.66453125 23.76773438 -24.9765625 23.26171875 C-24.34492187 22.77832031 -23.71328125 22.29492188 -23.0625 21.796875 C-22.47597656 21.35698242 -21.88945313 20.91708984 -21.28515625 20.46386719 C-19.56016938 18.8236669 -19.56016938 18.8236669 -20 15 C-18.171875 13.04296875 -18.171875 13.04296875 -15.75 11.1875 C-14.96109375 10.56230469 -14.1721875 9.93710937 -13.359375 9.29296875 C-11 8 -11 8 -8.703125 8.30078125 C-8.14109375 8.53152344 -7.5790625 8.76226562 -7 9 C-7.33 9.99 -7.66 10.98 -8 12 C-7.01 11.67 -6.02 11.34 -5 11 C-4.690625 10.195625 -4.38125 9.39125 -4.0625 8.5625 C-3 6 -3 6 -0.875 4.6875 C0.053125 4.3471875 0.053125 4.3471875 1 4 C0.505 2.02 0.505 2.02 0 0 Z " fill="#818181" transform="translate(148,26)"/>
<path d="M0 0 C20.79 0 41.58 0 63 0 C62 10 62 10 58 28 C37.21 28 16.42 28 -5 28 C-1 4 -1 4 0 0 Z " fill="#6A6A6A" transform="translate(14,76)"/>
<path d="M0 0 C4.86629339 -1.04277716 4.86629339 -1.04277716 8 0 C10.34534254 2.72628859 12.08920533 5.6251962 13.953125 8.69921875 C24.57331442 25.82528756 42.93956143 35.11633701 61.7890625 40.4921875 C69.91628436 42.3588639 78.02455842 42.24152641 86.3125 42.25 C87.07877716 42.25133942 87.84505432 42.25267883 88.634552 42.25405884 C99.71348191 42.2498446 110.22308492 41.78735467 121 39 C122.00933594 38.77183594 123.01867187 38.54367188 124.05859375 38.30859375 C129.9410807 36.88080566 135.12276225 34.6795205 140.4921875 31.890625 C143.53612671 30.80959986 145.01235221 30.7644304 148 32 C149.14404297 34.55957031 149.14404297 34.55957031 150 37 C120.68626556 52.52157337 85.78242295 56.63059697 53.875 47.3125 C30.88890027 40.21071393 13.12045177 27.23747954 1.43359375 6.00390625 C0 3 0 3 0 0 Z " fill="#676767" transform="translate(31,108)"/>
<path d="M0 0 C0.99 0 1.98 0 3 0 C3.3403125 1.3303125 3.3403125 1.3303125 3.6875 2.6875 C4.79715153 6.12791082 4.79715153 6.12791082 7.5 8.5 C10 11 10 11 10.8125 13.75 C12.34920674 17.9557237 14.86820586 20.42723221 17.890625 23.67578125 C20.8483114 26.93471349 23.43237482 30.43061196 26 34 C23.23900127 36.76099873 21.59935298 37.92084017 17.6875 38.4375 C11.86751504 36.1686923 8.99360492 31.34468 6 26 C5.63052208 24.34097168 5.29086646 22.67460013 5 21 C3.03490091 18.2299003 3.03490091 18.2299003 1 16 C0.0925 16.474375 -0.815 16.94875 -1.75 17.4375 C-4.30848407 18.66754042 -6.29379974 19.36855327 -9 20 C-14.33592535 22.32798471 -18.56614311 26.30631695 -23 30 C-23.99 30.804375 -24.98 31.60875 -26 32.4375 C-28.78243306 36.00249236 -29.3562451 39.58979853 -30 44 C-28.35 44 -26.7 44 -25 44 C-25.5640854 47.94859783 -26.7431706 50.70879046 -29 54 C-29.33 54 -29.66 54 -30 54 C-29.67 51.03 -29.34 48.06 -29 45 C-31.31 45 -33.62 45 -36 45 C-36 47.31 -36 49.62 -36 52 C-34.35 52.33 -32.7 52.66 -31 53 C-31.33 54.65 -31.66 56.3 -32 58 C-31.34 58 -30.68 58 -30 58 C-29.67 57.01 -29.34 56.02 -29 55 C-28.34 55.33 -27.68 55.66 -27 56 C-26.62098681 63.88908938 -26.6382421 69.24274117 -32.125 75.375 C-36.13721377 77.642773 -39.49575901 77.92039644 -44 77 C-47.0625 75 -47.0625 75 -49 72 C-49.75627859 66.13884096 -48.84169462 62.27743287 -46 57 C-43.270059 53.65362071 -42.32213421 53.08053355 -38 52 C-38 49.03 -38 46.06 -38 43 C-36.35 43 -34.7 43 -33 43 C-32.9727585 41.58344207 -32.95349533 40.16672955 -32.9375 38.75 C-32.92589844 37.96109375 -32.91429688 37.1721875 -32.90234375 36.359375 C-32.99643951 34.08602141 -33.41648066 32.18870232 -34 30 C-32.989375 29.25234375 -31.97875 28.5046875 -30.9375 27.734375 C-29.62449853 26.74024531 -28.31202568 25.74541716 -27 24.75 C-26.33226563 24.25886719 -25.66453125 23.76773438 -24.9765625 23.26171875 C-24.34492187 22.77832031 -23.71328125 22.29492188 -23.0625 21.796875 C-22.47597656 21.35698242 -21.88945313 20.91708984 -21.28515625 20.46386719 C-19.56016938 18.8236669 -19.56016938 18.8236669 -20 15 C-18.171875 13.04296875 -18.171875 13.04296875 -15.75 11.1875 C-14.96109375 10.56230469 -14.1721875 9.93710937 -13.359375 9.29296875 C-11 8 -11 8 -8.703125 8.30078125 C-8.14109375 8.53152344 -7.5790625 8.76226562 -7 9 C-7.33 9.99 -7.66 10.98 -8 12 C-7.01 11.67 -6.02 11.34 -5 11 C-4.690625 10.195625 -4.38125 9.39125 -4.0625 8.5625 C-3 6 -3 6 -0.875 4.6875 C0.053125 4.3471875 0.053125 4.3471875 1 4 C0.505 2.02 0.505 2.02 0 0 Z " fill="#686868" transform="translate(148,26)"/>
<path d="M0 0 C7.63291139 -0.96925859 7.63291139 -0.96925859 11.21484375 1.5703125 C12.69336445 2.97664503 14.15764122 4.39806345 15.609375 5.83203125 C19.58463953 9.43705055 24.20733713 11.65888358 29 14 C30.093125 14.556875 31.18625 15.11375 32.3125 15.6875 C42.73993384 19.3989595 53.17885435 20.53131099 64.1875 20.4375 C65.44836426 20.42992676 66.70922852 20.42235352 68.00830078 20.41455078 C88.42643737 20.0573442 110.14351914 15.10002554 125.94140625 1.3046875 C128.67004434 -0.42465808 130.55066695 -0.30176189 133.75 -0.1875 C134.73484375 -0.16042969 135.7196875 -0.13335937 136.734375 -0.10546875 C137.48203125 -0.07066406 138.2296875 -0.03585938 139 0 C126.25771453 17.6143358 102.08460245 23.82293723 81.828125 27.58984375 C76.176415 28.19538411 70.55505048 28.18437222 64.875 28.1875 C63.15410156 28.20586914 63.15410156 28.20586914 61.3984375 28.22460938 C50.59615388 28.24285648 39.98600018 27.32624048 29.875 23.3125 C29.2039624 23.05122314 28.5329248 22.78994629 27.84155273 22.52075195 C17.11458323 18.18196934 4.82110986 11.06607083 0 0 Z " fill="#676767" transform="translate(57,108)"/>
<path d="M0 0 C20.79 0 41.58 0 63 0 C61.875 11.25 61.875 11.25 60.9375 15.625 C60.76089844 16.46289062 60.58429688 17.30078125 60.40234375 18.1640625 C60.26957031 18.76992187 60.13679688 19.37578125 60 20 C59.34 20 58.68 20 58 20 C57.67 20.66 57.34 21.32 57 22 C57 21.34 57 20.68 57 20 C54.69 20 52.38 20 50 20 C50 18.35 50 16.7 50 15 C52.31 15 54.62 15 57 15 C57 14.01 57 13.02 57 12 C55.02 12 53.04 12 51 12 C51 10.68 51 9.36 51 8 C53.64 8 56.28 8 59 8 C59 7.01 59 6.02 59 5 C55.37 5 51.74 5 48 5 C47.34 10.28 46.68 15.56 46 21 C45.01 21.33 44.02 21.66 43 22 C43 21.34 43 20.68 43 20 C41.329375 20.061875 41.329375 20.061875 39.625 20.125 C36 20 36 20 34 18 C33.53120201 14.40588208 33.55638552 12.64835963 35.625 9.625 C38.6037896 7.5868808 40.46322336 7.67847485 44 8 C44.33 7.34 44.66 6.68 45 6 C39.34091811 5.53533915 39.34091811 5.53533915 34.25 7.625 C31.77998791 10.23223499 29.87626783 12.94237835 28 16 C27.34 15.67 26.68 15.34 26 15 C26.66 14.34 27.32 13.68 28 13 C28.16681109 9.91652174 28.16681109 9.91652174 28 7 C25.71294169 5.85647084 24.40735238 5.89665561 21.875 5.9375 C19.956875 5.9684375 19.956875 5.9684375 18 6 C17.67 7.98 17.34 9.96 17 12 C16.67 10.68 16.34 9.36 16 8 C15.34 8 14.68 8 14 8 C14 7.01 14 6.02 14 5 C12.51988629 5.30798326 11.04092675 5.621518 9.5625 5.9375 C8.32693359 6.19853516 8.32693359 6.19853516 7.06640625 6.46484375 C5.02338796 6.80752994 5.02338796 6.80752994 4 8 C3.49940084 10.41482413 3.49940084 10.41482413 4 13 C5.64821244 14.03013277 7.31503702 15.03114628 9 16 C9 17.32 9 18.64 9 20 C6.36 20 3.72 20 1 20 C0.67 20.66 0.34 21.32 0 22 C-0.99 21.67 -1.98 21.34 -3 21 C-3.33 21.99 -3.66 22.98 -4 24 C-2.99403489 15.95227908 -1.49464453 7.97143748 0 0 Z " fill="#676767" transform="translate(14,76)"/>
<path d="M0 0 C10.48611338 9.94750081 16.05957598 21.21385129 16.6875 35.6875 C14.7075 35.6875 12.7275 35.6875 10.6875 35.6875 C10.35878906 34.14642578 10.35878906 34.14642578 10.0234375 32.57421875 C6.23341154 15.68561792 -0.5469875 4.29374607 -15.3125 -5.3125 C-24.92601376 -11.2189322 -35.40802864 -13.85902532 -46.3125 -16.3125 C-47.46963501 -16.58296143 -47.46963501 -16.58296143 -48.65014648 -16.85888672 C-74.86432552 -21.32527321 -104.20326436 -16.51822823 -126.3359375 -1.73046875 C-128.21733506 -0.46178934 -128.21733506 -0.46178934 -129.3125 0.6875 C-130.97867115 0.72813832 -132.64638095 0.730221 -134.3125 0.6875 C-134.3125 0.0275 -134.3125 -0.6325 -134.3125 -1.3125 C-133.6525 -1.3125 -132.9925 -1.3125 -132.3125 -1.3125 C-132.3125 -1.9725 -132.3125 -2.6325 -132.3125 -3.3125 C-96.82276255 -30.39537311 -34.22885555 -29.23607512 0 0 Z " fill="#6E6E6E" transform="translate(204.3125,34.3125)"/>
<path d="M0 0 C3.74593559 -0.81161938 5.39347523 -1.09164965 9 0 C11.1760705 1.975068 13.0347139 3.85291139 14.9375 6.0625 C26.24310759 19.19010762 42.00142293 27.47545702 59 31 C58.67 32.98 58.34 34.96 58 37 C51.52081287 39.42167638 42.96401535 35.67333801 36.83349609 33.08544922 C20.98199719 25.79769133 9.08990022 17.04462652 0 2 C0 1.34 0 0.68 0 0 Z " fill="#676767" transform="translate(44,108)"/>
<path d="M0 0 C-0.78375 0.7425 -1.5675 1.485 -2.375 2.25 C-5.78085175 5.81803516 -6.85776056 7.46381402 -7.3125 12.375 C-6.97375812 16.30440576 -6.06484674 18.66447834 -4 22 C-1.70370006 23.14814997 0.07698086 23.30769809 2.625 23.5625 C3.44226563 23.64628906 4.25953125 23.73007813 5.1015625 23.81640625 C6.04128906 23.90728516 6.04128906 23.90728516 7 24 C6.505 21.525 6.505 21.525 6 19 C5.236875 19.061875 4.47375 19.12375 3.6875 19.1875 C1 19 1 19 -0.8125 17.875 C-2.60767534 15.04051261 -2.52651051 13.29069071 -2 10 C0.125 7.0625 0.125 7.0625 3 5 C6.3125 5.1875 6.3125 5.1875 9 6 C8.67 4.02 8.34 2.04 8 0 C10.64 0 13.28 0 16 0 C14 4 14 4 12.875 5.75 C11.03735581 10.47537077 11.46895006 14.68501919 13.3125 19.25 C15.11319911 22.28007196 15.11319911 22.28007196 18 26 C5.79 26 -6.42 26 -19 26 C-19 25.34 -19 24.68 -19 24 C-18.34 24 -17.68 24 -17 24 C-14.20194178 18.59042077 -13.25020579 14.05677917 -14 8 C-15.09331204 5.10678123 -16.43553072 2.68893157 -18 0 C-11.78675502 -0.73030908 -6.15901243 -1.23180249 0 0 Z " fill="#747474" transform="translate(181,78)"/>
<path d="M0 0 C0.66 0 1.32 0 2 0 C2 2.64 2 5.28 2 8 C3.65 8.33 5.3 8.66 7 9 C6.67 10.65 6.34 12.3 6 14 C6.66 14 7.32 14 8 14 C8.33 13.01 8.66 12.02 9 11 C9.66 11.33 10.32 11.66 11 12 C11.37901319 19.88908938 11.3617579 25.24274117 5.875 31.375 C1.86278623 33.642773 -1.49575901 33.92039644 -6 33 C-9.0625 31 -9.0625 31 -11 28 C-11.75627859 22.13884096 -10.84169462 18.27743287 -8 13 C-5.56828492 10.01918797 -3.84107278 8.54872468 0 8 C0 5.36 0 2.72 0 0 Z " fill="#6B6B6B" transform="translate(110,70)"/>
<path d="M0 0 C3.2164218 2.15969184 6.24899978 4.49799957 8 8 C8.57717357 12.73093088 8.43416625 16.14717343 6.25 20.4375 C3.00625281 24.13176764 1.43932923 24.84298227 -3.4375 25.375 C-7.62750939 24.93394638 -9.093893 23.98913863 -12 21 C-14.54819786 16.75003364 -14.55366961 12.83595798 -14 8 C-11.46190481 1.85513795 -6.63634117 -1.19454141 0 0 Z " fill="#696969" transform="translate(158,78)"/>
<path d="M0 0 C3.6578218 2.03993908 5.66946174 3.50419262 8 7 C8.59298783 11.54367302 8.55124808 15.704567 6.75 19.9375 C3.76744192 23.45265773 2.27806038 24.86057523 -2.4375 25.375 C-6.28727367 24.96976067 -8.04191593 24.46507006 -11 22 C-13.88402967 17.62423085 -14.64987517 14.19900136 -14 9 C-10.63001609 2.74145845 -7.41921119 -1.03868957 0 0 Z " fill="#696969" transform="translate(208,78)"/>
<path d="M0 0 C1.15113281 -0.03738281 2.30226562 -0.07476562 3.48828125 -0.11328125 C6.6875 0.3125 6.6875 0.3125 9.11328125 2.13671875 C10.6875 4.3125 10.6875 4.3125 10.5625 7.4375 C9.6875 10.3125 9.6875 10.3125 7.6875 12.3125 C8.3475 12.9725 9.0075 13.6325 9.6875 14.3125 C10.25928329 17.83849696 9.85105402 19.07262077 7.8125 22.0625 C5.08733469 24.94796915 4.42487674 25.29039638 0.4296875 25.41015625 C-1.48457031 25.39275391 -1.48457031 25.39275391 -3.4375 25.375 C-4.71882812 25.36597656 -6.00015625 25.35695313 -7.3203125 25.34765625 C-8.80144531 25.33025391 -8.80144531 25.33025391 -10.3125 25.3125 C-8.61932146 0.18216586 -8.61932146 0.18216586 0 0 Z " fill="#6C6C6C" transform="translate(133.3125,77.6875)"/>
<path d="M0 0 C1.16441185 0.94029911 2.33075245 1.87822085 3.5 2.8125 C6 5 6 5 8 8 C8 9.32 8 10.64 8 12 C6.68 12 5.36 12 4 12 C3.09786563 10.64679844 2.2050164 9.28676324 1.3515625 7.90234375 C-5.02738616 -1.07611868 -14.45275403 -5.78992798 -24.20507812 -10.18798828 C-25.66432977 -10.84814483 -27.1082076 -11.54220587 -28.546875 -12.24609375 C-50.68679918 -22.33467622 -77.44223451 -19.9339821 -101 -18 C-99 -21 -99 -21 -96 -21.73046875 C-94.66903143 -21.90225078 -93.33523249 -22.05281298 -92 -22.1875 C-90.9011145 -22.30593262 -90.9011145 -22.30593262 -89.7800293 -22.42675781 C-57.74712851 -25.44607846 -24.93202577 -22.08806845 0 0 Z " fill="#6E6E6E" transform="translate(208,31)"/>
<path d="M0 0 C0.92619141 0.15662109 0.92619141 0.15662109 1.87109375 0.31640625 C-6.75819001 15.75828245 -23.73851836 25.70325971 -40.12890625 31.31640625 C-41.44890625 31.31640625 -42.76890625 31.31640625 -44.12890625 31.31640625 C-44.12890625 29.00640625 -44.12890625 26.69640625 -44.12890625 24.31640625 C-43.10152344 23.90390625 -42.07414063 23.49140625 -41.015625 23.06640625 C-29.89805551 18.48375568 -20.71949215 13.37854703 -12.56640625 4.31640625 C-8.53727255 0.06099874 -5.75474314 -0.55182468 0 0 Z " fill="#676767" transform="translate(207.12890625,107.68359375)"/>
<path d="M0 0 C0 0.99 0 1.98 0 3 C-1.22074219 3.42410156 -2.44148438 3.84820313 -3.69921875 4.28515625 C-28.61588907 13.0933109 -45.82408525 24.74366786 -58 49 C-59.98 49 -61.96 49 -64 49 C-59.40504503 31.53917111 -43.46666087 17.79722857 -28.55859375 8.89453125 C-19.78845719 4.04911102 -10.11353232 -0.22985301 0 0 Z " fill="#696969" transform="translate(115,20)"/>
<path d="M0 0 C2.24893954 -0.10823773 4.49937575 -0.18569645 6.75 -0.25 C8.00296875 -0.29640625 9.2559375 -0.3428125 10.546875 -0.390625 C14 0 14 0 16.46484375 1.8203125 C18 4 18 4 17.8125 7.125 C17 10 17 10 16 12 C15.34 12 14.68 12 14 12 C14.33 12.66 14.66 13.32 15 14 C15.07033769 15.87379605 15.0843022 17.75001102 15.0625 19.625 C15.05347656 20.62789062 15.04445313 21.63078125 15.03515625 22.6640625 C15.02355469 23.43492188 15.01195313 24.20578125 15 25 C13.35 25 11.7 25 10 25 C10 21.7 10 18.4 10 15 C7.36 15 4.72 15 2 15 C2.020625 16.27875 2.04125 17.5575 2.0625 18.875 C2.125 22.75 2.125 22.75 1 25 C-0.32 25 -1.64 25 -3 25 C-2.53007706 16.52902072 -1.74640116 8.30812204 0 0 Z " fill="#6E6E6E" transform="translate(80,78)"/>
<path d="M0 0 C0.99 0 1.98 0 3 0 C3.3403125 1.3303125 3.3403125 1.3303125 3.6875 2.6875 C4.79715153 6.12791082 4.79715153 6.12791082 7.5 8.5 C10 11 10 11 10.8125 13.75 C12.34920674 17.9557237 14.86820586 20.42723221 17.890625 23.67578125 C20.8483114 26.93471349 23.43237482 30.43061196 26 34 C23.23900127 36.76099873 21.59935298 37.92084017 17.6875 38.4375 C11.86751504 36.1686923 8.99360492 31.34468 6 26 C5.62088942 24.34314634 5.27561999 22.67717695 5 21 C4.505 20.505 4.01 20.01 3.5 19.5 C1.50098925 17.50098925 1.37109019 15.74606742 1 13 C1.66 13 2.32 13 3 13 C0.94766315 10.7522025 -0.00667261 9.9977758 -3 9 C-2.6875 7.0625 -2.6875 7.0625 -2 5 C-1.01 4.67 -0.02 4.34 1 4 C0.67 2.68 0.34 1.36 0 0 Z " fill="#666666" transform="translate(148,26)"/>
<path d="M0 0 C16.08489492 1.07232633 31.15021062 7.97872173 42 20 C47.83192486 27.88844573 55 38.8660976 55 49 C53.02 49 51.04 49 49 49 C48.79697266 47.92685547 48.79697266 47.92685547 48.58984375 46.83203125 C46.21001158 35.8164009 41.58930344 23.67855366 32 17 C23.0970564 11.65076359 13.79247853 7.9910159 3.81640625 5.203125 C1 4 1 4 0.08984375 1.859375 C0.06019531 1.24578125 0.03054687 0.6321875 0 0 Z " fill="#6C6C6C" transform="translate(157,20)"/>
<path d="M0 0 C1.2065625 0.0309375 1.2065625 0.0309375 2.4375 0.0625 C6.66073462 9.47252278 6.66073462 9.47252278 8.4375 14.0625 C8.7675 14.0625 9.0975 14.0625 9.4375 14.0625 C10.4275 9.4425 11.4175 4.8225 12.4375 0.0625 C14.0875 0.0625 15.7375 0.0625 17.4375 0.0625 C16.67760799 5.5588063 15.79644561 11.02864117 14.875 16.5 C14.73642578 17.32693359 14.59785156 18.15386719 14.45507812 19.00585938 C14.11663211 21.02486489 13.77717107 23.04370022 13.4375 25.0625 C11.4575 25.0625 9.4775 25.0625 7.4375 25.0625 C5.4575 20.1125 3.4775 15.1625 1.4375 10.0625 C0.1175 15.0125 -1.2025 19.9625 -2.5625 25.0625 C-4.2125 25.0625 -5.8625 25.0625 -7.5625 25.0625 C-4.18168195 0.10199224 -4.18168195 0.10199224 0 0 Z " fill="#6C6C6C" transform="translate(223.5625,77.9375)"/>
<path d="M0 0 C-1.27629299 3.82887897 -2.82223968 4.50016327 -6.125 6.75 C-18.64321584 15.68697368 -25.91657224 27.54504677 -33 41 C-34.98 41 -36.96 41 -39 41 C-33.97650637 24.70369052 -20.59285709 9.36640762 -6.125 0.4375 C-3 -1 -3 -1 0 0 Z " fill="#686868" transform="translate(71,28)"/>
<path d="M0 0 C14.37753744 3.00482925 27.34086889 9.45839677 37.25 20.5 C37.72824219 20.98597656 38.20648438 21.47195312 38.69921875 21.97265625 C45.04923784 28.73854561 49.47503023 38.18191109 50.25 47.5 C49.7890625 49.75390625 49.7890625 49.75390625 49.25 51.5 C46.03852429 49.89426215 45.72188382 46.4832908 44.625 43.25 C39.1406179 28.02828485 31.09867315 15.89093545 16.125 8.6875 C8.46318438 5.19883182 0.45933308 3.23679714 -7.75 1.5 C-4.31972863 -0.78684758 -3.86198534 -0.70217915 0 0 Z " fill="#EBEBEB" transform="translate(164.75,18.5)"/>
<path d="M0 0 C-0.78375 0.7425 -1.5675 1.485 -2.375 2.25 C-5.78085175 5.81803516 -6.85776056 7.46381402 -7.3125 12.375 C-6.96883873 16.36147072 -6.13954476 18.63785823 -4 22 C-2.68 22.99 -1.36 23.98 0 25 C-5.94 25 -11.88 25 -18 25 C-16.68 22.36 -15.36 19.72 -14 17 C-12.5874495 10.43579475 -14.72591793 5.62732855 -18 0 C-11.78675502 -0.73030908 -6.15901243 -1.23180249 0 0 Z " fill="#656565" transform="translate(181,78)"/>
<path d="M0 0 C8.13124451 2.73390197 12.55823512 9.69959661 16.375 17.0625 C19.47403132 23.69004796 21.37098072 29.58038567 21 37 C19.02 37 17.04 37 15 37 C14.78085938 35.97261719 14.56171875 34.94523437 14.3359375 33.88671875 C11.9680395 23.33079807 8.93089425 14.22319636 1.5625 6 C0.716875 5.01 -0.12875 4.02 -1 3 C-0.67 2.01 -0.34 1.02 0 0 Z " fill="#686868" transform="translate(200,33)"/>
<path d="M0 0 C6.74072916 6.44582226 6.74072916 6.44582226 7.375 10.703125 C6.385 9.6821875 6.385 9.6821875 5.375 8.640625 C4.37848483 7.65791198 3.37810073 6.6791149 2.375 5.703125 C1.84003906 5.17203125 1.30507812 4.6409375 0.75390625 4.09375 C-21.14014663 -16.43486733 -50.798367 -18.9901827 -79.29199219 -18.43164062 C-83.29581163 -18.26975165 -87.25047459 -17.89541871 -91.22705078 -17.40917969 C-93.85498179 -17.28610412 -96.0749358 -17.68449603 -98.625 -18.296875 C-98.295 -18.956875 -97.965 -19.616875 -97.625 -20.296875 C-65.1427359 -25.27813248 -25.7790987 -22.55671137 0 0 Z " fill="#E4E4E4" transform="translate(204.625,32.296875)"/>
<path d="M0 0 C0.99386719 0.02707031 1.98773438 0.05414063 3.01171875 0.08203125 C4.15060547 0.13423828 4.15060547 0.13423828 5.3125 0.1875 C5.3125 1.8375 5.3125 3.4875 5.3125 5.1875 C4.405 5.105 3.4975 5.0225 2.5625 4.9375 C-0.71734454 4.91751106 -0.71734454 4.91751106 -3.0625 6.8125 C-5.13111448 9.83585963 -5.15629799 11.59338208 -4.6875 15.1875 C-2.32796906 17.54703094 -0.90854383 17.67891413 2.3125 18.1875 C2.6425 19.8375 2.9725 21.4875 3.3125 23.1875 C-4.67198519 23.97029267 -4.67198519 23.97029267 -8.6875 20.875 C-11.83556341 16.64478979 -12.04491717 13.37004891 -11.6875 8.1875 C-8.87528087 2.29523135 -6.64967887 -0.23469455 0 0 Z " fill="#EBEBEB" transform="translate(184.6875,78.8125)"/>
<path d="M0 0 C1.32 0.66 2.64 1.32 4 2 C4.61619487 10.81500987 4.61619487 10.81500987 2.375 15.125 C0 17 0 17 -3.125 17.4375 C-6 17 -6 17 -8 15 C-8.66524275 10.60248621 -8.45909208 6.93731299 -6.5 2.9375 C-6.005 2.298125 -5.51 1.65875 -5 1 C-3.35 1.33 -1.7 1.66 0 2 C0 1.34 0 0.68 0 0 Z " fill="#F2F2F2" transform="translate(112,82)"/>
<path d="M0 0 C2.125 0.375 2.125 0.375 4 1 C4.56606361 11.79713931 4.56606361 11.79713931 1 16 C-1.52414681 18.61429492 -2.76807058 18.97469861 -6.4375 19.375 C-10.23137696 18.97564453 -12.10682126 18.46771128 -15 16 C-15.8125 13.3125 -15.8125 13.3125 -16 11 C-14.68 10.34 -13.36 9.68 -12 9 C-11.01 10.485 -11.01 10.485 -10 12 C-7 12.41666667 -7 12.41666667 -4 12 C-3.34 11.34 -2.68 10.68 -2 10 C-2 8.68 -2 7.36 -2 6 C-2 2 -2 2 0 0 Z " fill="#676767" transform="translate(212,84)"/>
<path d="M0 0 C2.0078125 0.23046875 2.0078125 0.23046875 5.0078125 2.23046875 C5.40393298 5.33341252 5.55964291 7.34140865 3.8828125 10.04296875 C1.34105035 11.65275144 -1.0319983 11.90155884 -3.9921875 12.23046875 C-4.3221875 14.21046875 -4.6521875 16.19046875 -4.9921875 18.23046875 C-6.3121875 18.23046875 -7.6321875 18.23046875 -8.9921875 18.23046875 C-8.68491725 15.41730517 -8.37163598 12.60504356 -8.0546875 9.79296875 C-7.96767578 8.99052734 -7.88066406 8.18808594 -7.79101562 7.36132812 C-6.96849525 0.14142703 -6.96849525 0.14142703 0 0 Z " fill="#E5E5E5" transform="translate(37.9921875,80.76953125)"/>
<path d="M0 0 C3.63 0 7.26 0 11 0 C11 0.99 11 1.98 11 3 C8.36 3 5.72 3 3 3 C3 4.32 3 5.64 3 7 C4.98 7 6.96 7 9 7 C9 7.99 9 8.98 9 10 C6.69 10 4.38 10 2 10 C2 11.65 2 13.3 2 15 C4.31 15 6.62 15 9 15 C9 15.99 9 16.98 9 18 C5.04 18 1.08 18 -3 18 C-2.69112547 15.56199034 -2.37805338 13.12464633 -2.0625 10.6875 C-1.97548828 9.99720703 -1.88847656 9.30691406 -1.79882812 8.59570312 C-1.40789865 5.59857712 -0.9584996 2.87549881 0 0 Z " fill="#E7E7E7" transform="translate(62,81)"/>
<path d="M0 0 C0.4640625 0.9590625 0.4640625 0.9590625 0.9375 1.9375 C1.8345163 3.93610821 1.8345163 3.93610821 3 5 C3.48793461 8.51312921 3.15643813 9.77055742 1.125 12.75 C-1.60016531 15.63546915 -2.26262326 15.97789638 -6.2578125 16.09765625 C-8.17207031 16.08025391 -8.17207031 16.08025391 -10.125 16.0625 C-11.40632812 16.05347656 -12.68765625 16.04445313 -14.0078125 16.03515625 C-15.48894531 16.01775391 -15.48894531 16.01775391 -17 16 C-17 14.35 -17 12.7 -17 11 C-15.68 10.34 -14.36 9.68 -13 9 C-13 9.99 -13 10.98 -13 12 C-8.545 11.505 -8.545 11.505 -4 11 C-3.67 9.35 -3.34 7.7 -3 6 C-4.32 5.01 -5.64 4.02 -7 3 C-4.66785852 1.79371992 -2.50357861 0.8345262 0 0 Z " fill="#696969" transform="translate(140,87)"/>
<path d="M0 0 C1.8125 1.0625 1.8125 1.0625 3 3 C3.63316583 8.90954774 3.63316583 8.90954774 1.875 11.9375 C-0.92162472 13.52225401 -2.8493196 13.45947423 -6 13 C-7.9375 11.375 -7.9375 11.375 -9 9 C-8.87046154 5.82630784 -8.51878767 3.77818151 -6.75 1.125 C-4.32392716 -0.43461825 -2.83004474 -0.42450671 0 0 Z " fill="#E9E9E9" transform="translate(208,84)"/>
<path d="M0 0 C2.9375 0.8125 2.9375 0.8125 4.9375 3.8125 C4.48466981 10.26533019 4.48466981 10.26533019 1.9375 12.8125 C-1 13.1875 -1 13.1875 -4.0625 12.8125 C-6 11.25 -6 11.25 -7.0625 8.8125 C-6.9375 5.1875 -6.9375 5.1875 -6.0625 1.8125 C-3.0625 -0.1875 -3.0625 -0.1875 0 0 Z " fill="#EAEAEA" transform="translate(156.0625,84.1875)"/>
<path d="M0 0 C0 0.66 0 1.32 0 2 C-0.55236328 2.04487549 -1.10472656 2.08975098 -1.67382812 2.13598633 C-12.47202304 3.03397209 -23.04693829 4.16138963 -33.65234375 6.4140625 C-36.848587 6.97349831 -39.76383166 7.10869573 -43 7 C-39.57977335 2.59736782 -35.75937407 1.97434493 -30.5 1.25 C-29.26576294 1.06570435 -29.26576294 1.06570435 -28.0065918 0.87768555 C-18.68536609 -0.38384033 -9.3830922 -0.26695837 0 0 Z " fill="#6B6B6B" transform="translate(142,13)"/>
<path d="M0 0 C0.33 0.66 0.66 1.32 1 2 C0.34 2.66 -0.32 3.32 -1 4 C-1.969375 3.979375 -2.93875 3.95875 -3.9375 3.9375 C-6.92658881 3.744774 -6.92658881 3.744774 -8.875 5.125 C-10.48515263 7.80858771 -10.26647742 9.93550972 -10 13 C-8.03177114 14.96822886 -4.65191291 14.66248381 -2 15 C-2 15.99 -2 16.98 -2 18 C-9.99180328 18.6147541 -9.99180328 18.6147541 -13.5625 16.4375 C-15.59892975 12.98442348 -15.61317083 10.95154536 -15 7 C-10.90468374 0.22988309 -7.33108374 -0.11824329 0 0 Z " fill="#E9E9E9" transform="translate(59,81)"/>
<path d="M0 0 C1.485 0.495 1.485 0.495 3 1 C-6.27968215 11.00434279 -16.20656771 18.10374814 -29 23 C-29.66 23 -30.32 23 -31 23 C-31 21.68 -31 20.36 -31 19 C-29.69289062 18.48953125 -29.69289062 18.48953125 -28.359375 17.96875 C-17.63607487 13.60515601 -8.11062872 8.46262707 0 0 Z " fill="#EBEBEB" transform="translate(195,109)"/>
<path d="M0 0 C0 0.99 0 1.98 0 3 C-1.98 3.33 -3.96 3.66 -6 4 C-5.33131686 7.11332248 -5.33131686 7.11332248 -2.9375 8.1875 C-2.298125 8.455625 -1.65875 8.72375 -1 9 C-0.52 14.4 -0.52 14.4 -2.5 16.875 C-6.12260123 18.50517055 -9.04546658 18.19772667 -13 18 C-13 17.01 -13 16.02 -13 15 C-10.36 15 -7.72 15 -5 15 C-5.12177688 13.08533633 -5.12177688 13.08533633 -6 11 C-6.845625 10.525625 -7.69125 10.05125 -8.5625 9.5625 C-11 8 -11 8 -11.5625 5.5 C-11 3 -11 3 -9.4375 1.1875 C-6.19571384 -0.39183172 -3.55711122 -0.20521796 0 0 Z " fill="#EAEAEA" transform="translate(28,81)"/>
<path d="M0 0 C5.61 0 11.22 0 17 0 C17 1.98 17 3.96 17 6 C10.73 6 4.46 6 -2 6 C-1.34 4.02 -0.68 2.04 0 0 Z " fill="#626262" transform="translate(183,70)"/>
<path d="M0 0 C0 0.33 0 0.66 0 1 C-0.77601562 1.14695312 -1.55203125 1.29390625 -2.3515625 1.4453125 C-15.1314026 4.09888312 -25.97082864 8.8304263 -36.57421875 16.36328125 C-39 18 -39 18 -42 19 C-38.88747059 11.41734857 -30.13977465 7.87988384 -23.0625 4.75 C-6.95068338 -1.79652244 -6.95068338 -1.79652244 0 0 Z " fill="#E8E8E8" transform="translate(115,19)"/>
<path d="M0 0 C2.64 0 5.28 0 8 0 C6 4 6 4 4.9375 5.8125 C3.6532312 8.80912721 3.37181126 11.77763576 3 15 C2.01 15 1.02 15 0 15 C-0.66 13.68 -1.32 12.36 -2 11 C-3.98 11 -5.96 11 -8 11 C-7.67 9.35 -7.34 7.7 -7 6 C-3.71303767 5.20046862 -2.28976808 4.90341064 1 6 C0.67 4.02 0.34 2.04 0 0 Z " fill="#646464" transform="translate(189,78)"/>
<path d="M0 0 C1.65 0 3.3 0 5 0 C5.66 1.32 6.32 2.64 7 4 C6.67 4.33 6.34 4.66 6 5 C5.60851239 6.51165654 5.26027543 8.03469632 4.9375 9.5625 C4.76089844 10.38878906 4.58429688 11.21507813 4.40234375 12.06640625 C4.26957031 12.70449219 4.13679688 13.34257813 4 14 C5.65 14 7.3 14 9 14 C8.4359146 17.94859783 7.2568294 20.70879046 5 24 C4.67 24 4.34 24 4 24 C4.495 19.545 4.495 19.545 5 15 C3.329375 15.061875 3.329375 15.061875 1.625 15.125 C-2 15 -2 15 -4 13 C-2.35 13 -0.7 13 1 13 C1.0272415 11.58344207 1.04650467 10.16672955 1.0625 8.75 C1.07410156 7.96109375 1.08570312 7.1721875 1.09765625 6.359375 C1.00385306 4.09308998 0.63241063 2.1711105 0 0 Z " fill="#838383" transform="translate(114,56)"/>
<path d="M0 0 C0.515625 0.350625 1.03125 0.70125 1.5625 1.0625 C4.94006667 2.3615641 7.50468057 1.67217681 11 1 C11 1.66 11 2.32 11 3 C17.27 3 23.54 3 30 3 C27 6 27 6 23.453125 6.328125 C22.05188154 6.31750952 20.65068677 6.29089596 19.25 6.25 C18.5590625 6.24484375 17.868125 6.2396875 17.15625 6.234375 C13.82351057 6.18425862 10.69210929 5.95373318 7.38671875 5.45703125 C3.95492609 4.99391736 0.9997922 5.08990865 -2.4375 5.4375 C-3.48808594 5.53933594 -4.53867188 5.64117187 -5.62109375 5.74609375 C-6.79865234 5.87177734 -6.79865234 5.87177734 -8 6 C-8.33 5.01 -8.66 4.02 -9 3 C-4.545 2.505 -4.545 2.505 0 2 C0 1.34 0 0.68 0 0 Z " fill="#B7B7B7" transform="translate(170,73)"/>
<path d="M0 0 C9.72330128 1.99385938 19.14507629 5.76573544 27.25 11.5 C26.92 12.49 26.59 13.48 26.25 14.5 C25.38761719 13.98050781 24.52523437 13.46101563 23.63671875 12.92578125 C13.56335175 7.093611 3.57275073 4.0351261 -7.75 1.5 C-4.31972863 -0.78684758 -3.86198534 -0.70217915 0 0 Z " fill="#E3E3E3" transform="translate(164.75,18.5)"/>
<path d="M0 0 C0 0.33 0 0.66 0 1 C3.96 1.33 7.92 1.66 12 2 C12 2.33 12 2.66 12 3 C10.92854736 3.03758423 10.92854736 3.03758423 9.83544922 3.07592773 C-9.09960053 3.72422796 -9.09960053 3.72422796 -28 5 C-26 2 -26 2 -22.40234375 1.26953125 C-20.91571779 1.10180248 -19.42720065 0.95027395 -17.9375 0.8125 C-17.17123291 0.73209473 -16.40496582 0.65168945 -15.61547852 0.56884766 C-10.38974683 0.0492106 -5.25247182 -0.19099898 0 0 Z " fill="#7B7B7B" transform="translate(135,8)"/>
<path d="M0 0 C8.89291917 -0.48506832 17.30940593 1.32374305 26 3 C25.34 3.33 24.68 3.66 24 4 C24 4.66 24 5.32 24 6 C23.30519531 5.86722656 22.61039063 5.73445313 21.89453125 5.59765625 C11.30894245 3.75960091 0.72121799 3.37404902 -10 3 C-10 2.67 -10 2.34 -10 2 C-6.7 2 -3.4 2 0 2 C0 1.34 0 0.68 0 0 Z " fill="#717171" transform="translate(142,13)"/>
<path d="M0 0 C2.02558881 3.34939881 2.21738987 5.86962551 2.125 9.75 C2.10695313 10.73484375 2.08890625 11.7196875 2.0703125 12.734375 C2.03550781 13.85585937 2.03550781 13.85585937 2 15 C0.35 15 -1.3 15 -3 15 C-3 11.7 -3 8.4 -3 5 C-3.99 4.67 -4.98 4.34 -6 4 C-2.25 0 -2.25 0 0 0 Z " fill="#6E6E6E" transform="translate(93,88)"/>
<path d="M0 0 C0.66 0.66 1.32 1.32 2 2 C4.58354218 2.16687448 4.58354218 2.16687448 7 2 C7.84454356 5.37817425 8.10844919 7.67465243 7 11 C4.25913944 11.22223194 2.56036279 11.34781139 0.1875 9.875 C-1.51357571 7.18909098 -1.26497268 5.11342901 -1 2 C-0.67 1.34 -0.34 0.68 0 0 Z " fill="#717171" transform="translate(180,86)"/>
<path d="M0 0 C2.375 1.375 2.375 1.375 3.1875 4 C3.249375 4.78375 3.31125 5.5675 3.375 6.375 C2.715 6.375 2.055 6.375 1.375 6.375 C1.375 7.035 1.375 7.695 1.375 8.375 C-0.605 8.375 -2.585 8.375 -4.625 8.375 C-4.625 7.715 -4.625 7.055 -4.625 6.375 C-5.285 6.375 -5.945 6.375 -6.625 6.375 C-6.295 4.395 -5.965 2.415 -5.625 0.375 C-2.625 -0.625 -2.625 -0.625 0 0 Z " fill="#C1C1C1" transform="translate(177.625,65.625)"/>
<path d="M0 0 C2.64 0 5.28 0 8 0 C8.625 2.375 8.625 2.375 9 5 C7 7 7 7 5.0546875 7.1953125 C3.03645833 7.13020833 1.01822917 7.06510417 -1 7 C-0.67 4.69 -0.34 2.38 0 0 Z " fill="#EAEAEA" transform="translate(129,92)"/>
<path d="M0 0 C2.31 0 4.62 0 7 0 C7 11 7 11 6 13 C5.34 13 4.68 13 4 13 C4 11.35 4 9.7 4 8 C2.68 7.67 1.36 7.34 0 7 C0 4.69 0 2.38 0 0 Z " fill="#E6E6E6" transform="translate(112,71)"/>
<path d="M0 0 C0 0.33 0 0.66 0 1 C-4.03787559 1.31183896 -8.07631693 1.61469629 -12.11547852 1.90942383 C-13.48805666 2.01082674 -14.86045925 2.11463687 -16.23266602 2.22094727 C-18.21061554 2.37375947 -20.18929259 2.51705997 -22.16796875 2.66015625 C-23.35672607 2.74918213 -24.5454834 2.83820801 -25.77026367 2.92993164 C-28.72237856 2.99397707 -31.14871663 2.7169344 -34 2 C-33.67 1.34 -33.34 0.68 -33 0 C-22.18242161 -1.94987698 -10.88456676 -0.75426102 0 0 Z " fill="#DADADA" transform="translate(140,12)"/>
<path d="M0 0 C2.64 0 5.28 0 8 0 C8.625 1.875 8.625 1.875 9 4 C7 6 7 6 5.0546875 6.1953125 C3.03645833 6.13020833 1.01822917 6.06510417 -1 6 C-0.67 4.02 -0.34 2.04 0 0 Z " fill="#F5F5F5" transform="translate(84,83)"/>
<path d="M0 0 C2.31 0 4.62 0 7 0 C7.99 1.98 8.98 3.96 10 6 C6.7 6 3.4 6 0 6 C0 4.02 0 2.04 0 0 Z " fill="#626262" transform="translate(161,70)"/>
<path d="M0 0 C2.72943537 -0.05416741 5.45778564 -0.09375225 8.1875 -0.125 C9.34088867 -0.15013672 9.34088867 -0.15013672 10.51757812 -0.17578125 C14.8149434 -0.21266851 18.07901831 0.0041496 22 2 C22 2.33 22 2.66 22 3 C14.28410183 3.1567564 6.68483539 2.67453101 -1 2 C-0.67 1.34 -0.34 0.68 0 0 Z " fill="#646464" transform="translate(135,8)"/>
<path d="M0 0 C2.97 0 5.94 0 9 0 C9 1.32 9 2.64 9 4 C6.04335481 5.4783226 3.25770263 5.06032783 0 5 C0 3.35 0 1.7 0 0 Z " fill="#F0F0F0" transform="translate(130,83)"/>
<path d="M0 0 C0.33 0.66 0.66 1.32 1 2 C3.52733235 2.65555119 3.52733235 2.65555119 6 3 C6.33 3.99 6.66 4.98 7 6 C6.34 6 5.68 6 5 6 C5 6.99 5 7.98 5 9 C3.35 9 1.7 9 0 9 C-1.15941038 5.52176885 -0.70820884 3.54104422 0 0 Z " fill="#999999" transform="translate(144,33)"/>
<path d="M0 0 C0.66 0.66 1.32 1.32 2 2 C1.625 5.125 1.625 5.125 1 8 C-1.07553648 8.5534764 -2.84365964 9 -5 9 C-5 8.34 -5 7.68 -5 7 C-4.34 7 -3.68 7 -3 7 C-3 5.68 -3 4.36 -3 3 C-5.97 3 -8.94 3 -12 3 C-12 2.67 -12 2.34 -12 2 C-11.30132812 2.02320312 -10.60265625 2.04640625 -9.8828125 2.0703125 C-8.51769531 2.09738281 -8.51769531 2.09738281 -7.125 2.125 C-6.22007812 2.14820312 -5.31515625 2.17140625 -4.3828125 2.1953125 C-1.81193006 2.24324836 -1.81193006 2.24324836 0 0 Z " fill="#777777" transform="translate(142,80)"/>
<path d="M0 0 C-1 3 -1 3 -4.0625 4.6875 C-5.031875 5.120625 -6.00125 5.55375 -7 6 C-7 5.34 -7 4.68 -7 4 C-8.65 4.66 -10.3 5.32 -12 6 C-4.89473684 -1.63157895 -4.89473684 -1.63157895 0 0 Z M-14 6 C-13.34 6.33 -12.68 6.66 -12 7 C-13.98 7.99 -13.98 7.99 -16 9 C-15.34 8.01 -14.68 7.02 -14 6 Z " fill="#727272" transform="translate(71,28)"/>
<path d="M0 0 C1.125 3.75 1.125 3.75 0 6 C-0.25785684 10.55547083 0.00148538 13.8780636 2 18 C1.01 18 0.02 18 -1 18 C-3.15475419 13.69049162 -3.6585127 9.73365653 -3 5 C-1.5 2 -1.5 2 0 0 Z " fill="#E0E0E0" transform="translate(195,81)"/>
<path d="M0 0 C2.68553371 2.57363648 3.28392557 4.71271545 3.4375 8.3125 C3.30096177 13.16362309 1.7010093 16.03289259 -1 20 C-1.66 19.34 -2.32 18.68 -3 18 C-2.505 17.360625 -2.01 16.72125 -1.5 16.0625 C0.90374625 11.15485141 0.7146471 6.14394129 -1 1 C-0.67 0.67 -0.34 0.34 0 0 Z " fill="#E4E4E4" transform="translate(165,82)"/>
<path d="M0 0 C1.875 0.1875 1.875 0.1875 4 1 C4.66 2.65 5.32 4.3 6 6 C11.28 6 16.56 6 22 6 C22 6.33 22 6.66 22 7 C16.39 7 10.78 7 5 7 C4.67 8.32 4.34 9.64 4 11 C3 9 3 9 3.125 6.625 C2.97523697 3.47997646 2.05570254 2.31266536 0 0 Z " fill="#9B9B9B" transform="translate(178,63)"/>
<path d="M0 0 C0.66 0.33 1.32 0.66 2 1 C0.02 1.99 0.02 1.99 -2 3 C-2 3.66 -2 4.32 -2 5 C-1.34 5.33 -0.68 5.66 0 6 C-2.35968744 8.09749995 -3.54616994 8.96905704 -6.75 9.1875 C-7.4925 9.125625 -8.235 9.06375 -9 9 C-9 8.34 -9 7.68 -9 7 C-8.34 7 -7.68 7 -7 7 C-7 6.34 -7 5.68 -7 5 C-5.46875 3.7109375 -5.46875 3.7109375 -3.5 2.375 C-2.8503125 1.92898437 -2.200625 1.48296875 -1.53125 1.0234375 C-0.77328125 0.51683594 -0.77328125 0.51683594 0 0 Z " fill="#767676" transform="translate(79,26)"/>
<path d="M0 0 C0 0.33 0 0.66 0 1 C-0.89203125 1.20496094 -1.7840625 1.40992188 -2.703125 1.62109375 C-3.87359375 1.89050781 -5.0440625 2.15992188 -6.25 2.4375 C-7.41015625 2.70433594 -8.5703125 2.97117187 -9.765625 3.24609375 C-11.62411917 3.67929348 -13.47653255 4.14992946 -15.296875 4.72265625 C-15.85890625 4.81417969 -16.4209375 4.90570312 -17 5 C-17.66 4.34 -18.32 3.68 -19 3 C-16.77518771 2.29853686 -14.54492632 1.61434046 -12.3125 0.9375 C-11.07113281 0.55464844 -9.82976562 0.17179687 -8.55078125 -0.22265625 C-5.1468214 -0.96785758 -3.28440924 -0.99851065 0 0 Z " fill="#D5D5D5" transform="translate(115,19)"/>
<path d="M0 0 C0.721875 0.268125 1.44375 0.53625 2.1875 0.8125 C2.1875 1.4725 2.1875 2.1325 2.1875 2.8125 C-4.4375 6.8125 -4.4375 6.8125 -7.8125 6.8125 C-7.8125 4.8125 -7.8125 4.8125 -5.625 2.125 C-2.8125 -0.1875 -2.8125 -0.1875 0 0 Z " fill="#696969" transform="translate(84.8125,24.1875)"/>
<path d="M0 0 C3.11198065 1.49836105 6.0534615 3.19933758 9 5 C8.67 5.99 8.34 6.98 8 8 C1.25 4.375 1.25 4.375 -1 1 C-0.67 0.67 -0.34 0.34 0 0 Z " fill="#E7E7E7" transform="translate(68,121)"/>
<path d="M0 0 C2.475 0.495 2.475 0.495 5 1 C5.125 3.875 5.125 3.875 5 7 C4.34 7.66 3.68 8.32 3 9 C2.01 8.67 1.02 8.34 0 8 C0.66 7.01 1.32 6.02 2 5 C1.19838209 2.32854463 1.19838209 2.32854463 0 0 Z " fill="#F2F2F2" transform="translate(38,82)"/>
<path d="M0 0 C-0.33 0.33 -0.66 0.66 -1 1 C-0.34 1.66 0.32 2.32 1 3 C-3.455 4.485 -3.455 4.485 -8 6 C-8 4.35 -8 2.7 -8 1 C-2.25 -1.125 -2.25 -1.125 0 0 Z " fill="#757575" transform="translate(101,18)"/>
<path d="M0 0 C2.97 0 5.94 0 9 0 C6.38521048 2.56761548 5.05471424 2.9956345 1.328125 3.29296875 C-0.03156035 3.27316751 -1.3910934 3.23759202 -2.75 3.1875 C-3.44738281 3.17396484 -4.14476562 3.16042969 -4.86328125 3.14648438 C-6.57585541 3.1112945 -8.28802941 3.05749155 -10 3 C-10 2.67 -10 2.34 -10 2 C-6.7 2 -3.4 2 0 2 C0 1.34 0 0.68 0 0 Z " fill="#838383" transform="translate(142,13)"/>
<path d="M0 0 C1.67542976 0.28604898 3.34385343 0.61781233 5 1 C4.67 2.32 4.34 3.64 4 5 C2.68 5 1.36 5 0 5 C-0.5625 3.0625 -0.5625 3.0625 -1 1 C-0.67 0.67 -0.34 0.34 0 0 Z " fill="#737373" transform="translate(153,88)"/>
<path d="M0 0 C1.47919922 0.19142578 1.47919922 0.19142578 2.98828125 0.38671875 C4.47908203 0.56654297 4.47908203 0.56654297 6 0.75 C6.75925781 0.85699219 7.51851562 0.96398438 8.30078125 1.07421875 C3.25663173 4.4369851 0.26876129 4.10713837 -5.69921875 3.07421875 C-3.85219692 0.62202936 -3.13798948 0.08628336 0 0 Z " fill="#757575" transform="translate(157.69921875,8.92578125)"/>
<path d="M0 0 C2.31 0.33 4.62 0.66 7 1 C7.33 1.99 7.66 2.98 8 4 C5.36 4 2.72 4 0 4 C0 2.68 0 1.36 0 0 Z " fill="#626262" transform="translate(104,99)"/>
<path d="M0 0 C2.475 0.495 2.475 0.495 5 1 C5 2.32 5 3.64 5 5 C3.0625 5.5625 3.0625 5.5625 1 6 C0 5 0 5 -0.0625 2.4375 C-0.041875 1.633125 -0.02125 0.82875 0 0 Z " fill="#717171" transform="translate(203,88)"/>
<path d="M0 0 C1.98 0.495 1.98 0.495 4 1 C3.67 2.65 3.34 4.3 3 6 C1.68 5.67 0.36 5.34 -1 5 C-0.67 3.35 -0.34 1.7 0 0 Z " fill="#EEEEEE" transform="translate(184,88)"/>
<path d="M0 0 C0.66 0.33 1.32 0.66 2 1 C2 2.98 2 4.96 2 7 C1.34 6.67 0.68 6.34 0 6 C0 5.34 0 4.68 0 4 C-2.31 4 -4.62 4 -7 4 C-7 5.98 -7 7.96 -7 10 C-7.33 10 -7.66 10 -8 10 C-8 7.69 -8 5.38 -8 3 C-5.36 3 -2.72 3 0 3 C0 2.01 0 1.02 0 0 Z " fill="#A0A0A0" transform="translate(168,66)"/>
<path d="M0 0 C1.40742022 2.81484045 0.66652164 4.56936113 0.0625 7.625 C-0.13214844 8.62789062 -0.32679688 9.63078125 -0.52734375 10.6640625 C-0.68332031 11.43492188 -0.83929688 12.20578125 -1 13 C-3.20080053 9.6987992 -3.21218749 9.10898842 -2.75 5.375 C-2.66234375 4.57835938 -2.5746875 3.78171875 -2.484375 2.9609375 C-2.24460938 1.99027344 -2.24460938 1.99027344 -2 1 C-1.34 0.67 -0.68 0.34 0 0 Z " fill="#D6D6D6" transform="translate(218,87)"/>
<path d="M0 0 C4 4.75 4 4.75 4 7 C5.98 7 7.96 7 10 7 C9.67 7.99 9.34 8.98 9 10 C9 9.34 9 8.68 9 8 C7.329375 8.061875 7.329375 8.061875 5.625 8.125 C2 8 2 8 0 6 C-0.125 2.875 -0.125 2.875 0 0 Z " fill="#757575" transform="translate(48,88)"/>
<path d="M0 0 C0.99 0 1.98 0 3 0 C1.90931332 3.77545388 1.0916909 6.47043472 -2 9 C-1.125 1.125 -1.125 1.125 0 0 Z " fill="#6C6C6C" transform="translate(120,71)"/>
<path d="M0 0 C2.475 0.495 2.475 0.495 5 1 C4.67 2.32 4.34 3.64 4 5 C2.68 5 1.36 5 0 5 C0 3.35 0 1.7 0 0 Z " fill="#6F6F6F" transform="translate(35,84)"/>
<path d="M0 0 C0.79921875 0.11085938 1.5984375 0.22171875 2.421875 0.3359375 C3.32679688 0.47902344 3.32679688 0.47902344 4.25 0.625 C3.59 1.285 2.93 1.945 2.25 2.625 C-0.3515625 2.6015625 -0.3515625 2.6015625 -3.375 2.25 C-4.37789062 2.13914062 -5.38078125 2.02828125 -6.4140625 1.9140625 C-7.57035156 1.77097656 -7.57035156 1.77097656 -8.75 1.625 C-5.5750906 -0.2828584 -3.64414789 -0.5359041 0 0 Z " fill="#D7D7D7" transform="translate(159.75,12.375)"/>
<path d="M0 0 C1.32 0 2.64 0 4 0 C4.33 1.32 4.66 2.64 5 4 C3.02 4 1.04 4 -1 4 C-0.67 2.68 -0.34 1.36 0 0 Z " fill="#717171" transform="translate(44,65)"/>
<path d="M0 0 C1.65 0 3.3 0 5 0 C5 1.32 5 2.64 5 4 C3.35 3.67 1.7 3.34 0 3 C0 2.01 0 1.02 0 0 Z " fill="#A7A7A7" transform="translate(114,56)"/>
<path d="M0 0 C2.125 0.375 2.125 0.375 4 1 C3.67 1.99 3.34 2.98 3 4 C2.01 4.33 1.02 4.66 0 5 C0 4.34 0 3.68 0 3 C-0.66 2.67 -1.32 2.34 -2 2 C-1.34 1.34 -0.68 0.68 0 0 Z " fill="#777777" transform="translate(137,34)"/>
<path d="M0 0 C-2.25 1.625 -2.25 1.625 -5 3 C-7.3125 2.1875 -7.3125 2.1875 -9 1 C-5.57367167 -0.61798838 -3.61944899 -1.34053666 0 0 Z " fill="#E0E0E0" transform="translate(98,24)"/>
<path d="M0 0 C2.64 0 5.28 0 8 0 C8.33 0.66 8.66 1.32 9 2 C8.34 2.66 7.68 3.32 7 4 C4.69 3.01 2.38 2.02 0 1 C0 0.67 0 0.34 0 0 Z " fill="#DFDFDF" transform="translate(51,81)"/>
<path d="M0 0 C0.33 0 0.66 0 1 0 C1.6875 3.3125 1.6875 3.3125 2 7 C1.01 7.99 0.02 8.98 -1 10 C-0.67 6.7 -0.34 3.4 0 0 Z " fill="#818181" transform="translate(14,76)"/>
</svg>
